<svg width="102" height="100" viewBox="0 0 102 100" fill="none" xmlns="http://www.w3.org/2000/svg">
<path d="M101.438 50.5208C101.438 77.8474 78.7302 100 50.7189 100C22.7076 100 0 77.8474 0 50.5208C0 23.1942 22.7076 1.04167 50.7189 1.04167C78.7302 1.04167 101.438 23.1942 101.438 50.5208Z" fill="#282F38"/>
<path d="M78.4313 49.4792C78.4313 64.7245 66.0241 77.0833 50.7189 77.0833C35.4138 77.0833 23.0065 64.7245 23.0065 49.4792C23.0065 34.2338 35.4138 21.875 50.7189 21.875C66.0241 21.875 78.4313 34.2338 78.4313 49.4792Z" fill="white"/>
<path d="M77.6057 0L92.7016 8.33657C98.4384 11.5046 102 17.5402 102 24.0935V82C102 91.9411 93.9411 100 84 100H77.6057V75L83.1372 50.5208L77.6057 34.375V0Z" fill="#282F38"/>
</svg>
