<svg width="36" height="43" viewBox="0 0 36 43" fill="none" xmlns="http://www.w3.org/2000/svg">
<path d="M28.6264 42.1012C25.0666 42.1012 22.3544 41.091 20.4897 39.0705C18.6675 37.006 17.7563 34.151 17.7563 30.5053V16.6692V9.26227V0H27.355V9.4876H34.5382V16.6692H27.355V29.1876C27.355 31.0324 27.6941 32.372 28.3721 33.2066C29.0502 33.9972 30.2579 34.3926 31.9955 34.3926C33.3939 34.3926 34.7289 34.0412 36.0002 33.3384V40.7835C34.0508 41.662 31.5929 42.1012 28.6264 42.1012Z" fill="#FBFBFB"/>
<path d="M14.4751 10.5095C13.9558 10.9508 13.3729 11.3232 12.7265 11.6266C12.1 11.9129 11.2226 12.272 10.0941 12.7038C9.11613 13.078 8.33155 13.4109 7.74036 13.7024C7.13386 13.9718 6.61092 14.2933 6.17153 14.6668C4.8134 15.8211 4.08076 17.3755 3.97359 19.3299L0 13.5841C0.0852023 11.9647 0.886755 10.51 2.40466 9.21979C2.90397 8.7954 3.47684 8.43152 4.12328 8.12816C4.76973 7.82481 5.61956 7.47163 6.67277 7.06863C7.61081 6.72836 8.40305 6.40655 9.0495 6.1032C9.69594 5.79984 10.2488 5.45294 10.7082 5.06249C12.0863 3.89115 12.8113 2.32568 12.8832 0.366089L16.8568 6.11197C16.8068 7.73648 16.013 9.20231 14.4751 10.5095Z" fill="#FBFBFB"/>
</svg>
