<svg width="359" height="131" viewBox="0 0 359 131" fill="none" xmlns="http://www.w3.org/2000/svg">
<path d="M76 66.9197V129.92L101.5 129.719V71.5C102.5 65 108.824 59.1034 115.5 57.5C120.5 56.2992 128 57 137 59.2193L137.5 36.2192C89.9 26.2192 76.8333 52.4197 76 66.9197Z" fill="#282F38"/>
<path d="M18 0V34H5.83987e-08C5.83987e-08 34 -0.00451827 43.14 2.5 48C5.7804 54.3655 18 56 18 56V97.5C18.4959 108.907 23.9082 115.056 26.4386 117.93L26.5 118C37.5 130.5 57.5 132.5 73 128.5V105.5C51 113 42.0889 100 41.7 93C41.3111 86 41.7 56 41.7 56H73V34H41.5V0H18Z" fill="#282F38"/>
<path d="M140.5 34H167.5V130H140.5V34Z" fill="#282F38"/>
<path d="M195.684 130H170.5V76.7951C170.5 45.5661 194.86 34 214 34C249.487 34 257.5 60 257.5 74.4819V130H233.14V80.265C233.14 65.2289 226.592 56.427 214 57.1325C197.974 58.0304 195.684 72.6764 195.684 80.265V130Z" fill="#282F38"/>
<path d="M357.5 82.5C357.5 108.734 335.786 130 309 130C282.214 130 260.5 108.734 260.5 82.5C260.5 56.2665 282.214 35 309 35C335.786 35 357.5 56.2665 357.5 82.5Z" fill="#282F38"/>
<path d="M335.5 81.5C335.5 96.1355 323.636 108 309 108C294.364 108 282.5 96.1355 282.5 81.5C282.5 66.8645 294.364 55 309 55C323.636 55 335.5 66.8645 335.5 81.5Z" fill="white"/>
<path d="M334.71 34L358.038 46.9326V130H334.71V106L340 82.5L334.71 67V34Z" fill="#282F38"/>
<path d="M140 13C140 5.8203 145.82 0 153 0H155C162.18 0 168 5.8203 168 13C168 20.1797 162.18 26 155 26H153C145.82 26 140 20.1797 140 13Z" fill="#282F38"/>
</svg>
