<svg width="293" height="58" viewBox="0 0 293 58" fill="none" xmlns="http://www.w3.org/2000/svg">
<path d="M39.4361 58C34.532 58 30.7956 56.6082 28.2268 53.8247C25.7164 50.9807 24.4612 47.0475 24.4612 42.025V22.964V12.76V0H37.6846V13.0704H47.5803V22.964H37.6846V40.2097C37.6846 42.7512 38.1517 44.5968 39.0858 45.7465C40.0199 46.8357 41.6838 47.3803 44.0774 47.3803C46.004 47.3803 47.8431 46.8962 49.5945 45.928V56.1847C46.909 57.3949 43.5228 58 39.4361 58Z" fill="#4ECDC4"/>
<path d="M19.9413 14.4782C19.2259 15.0863 18.423 15.5993 17.5324 16.0172C16.6694 16.4117 15.4606 16.9064 13.906 17.5012C12.5587 18.0168 11.4778 18.4753 10.6634 18.877C9.82784 19.2481 9.10741 19.6909 8.50209 20.2055C6.6311 21.7957 5.62178 23.9371 5.47414 26.6296L0 18.7139C0.117377 16.483 1.22162 14.4789 3.31273 12.7015C4.0006 12.1169 4.78981 11.6156 5.68037 11.1977C6.57093 10.7798 7.74168 10.2932 9.19262 9.73802C10.4849 9.26927 11.5763 8.82593 12.4669 8.40802C13.3574 7.9901 14.1191 7.5122 14.752 6.97431C16.6505 5.36063 17.6492 3.20399 17.7483 0.504395L23.2224 8.42011C23.1536 10.6581 22.06 12.6774 19.9413 14.4782Z" fill="#4ECDC4"/>
<path d="M71.626 46.1365L65.7971 35.8949H63.299V46.1365H58V19.8547H67.9167C69.9606 19.8547 71.7017 20.2187 73.1399 20.9466C74.5782 21.6495 75.6507 22.6159 76.3572 23.8459C77.0889 25.0508 77.4548 26.4063 77.4548 27.9124C77.4548 29.6445 76.9502 31.2133 75.9408 32.6191C74.9315 33.9997 73.4301 34.9535 71.4367 35.4807L77.7576 46.1365H71.626ZM63.299 31.9413H67.7274C69.1657 31.9413 70.2381 31.6024 70.9447 30.9247C71.6512 30.2218 72.0045 29.2554 72.0045 28.0254C72.0045 26.8205 71.6512 25.8917 70.9447 25.2391C70.2381 24.5613 69.1657 24.2224 67.7274 24.2224H63.299V31.9413Z" fill="#4ECDC4"/>
<path d="M86.0326 19.8547V46.1365H80.7336V19.8547H86.0326Z" fill="#4ECDC4"/>
<path d="M112.35 46.1365H107.051L95.0529 28.1007V46.1365H89.754V19.8171H95.0529L107.051 37.8905V19.8171H112.35V46.1365Z" fill="#4ECDC4"/>
<path d="M132.273 41.1286H121.75L120.009 46.1365H114.445L123.946 19.8171H130.115L139.616 46.1365H134.014L132.273 41.1286ZM130.834 36.9115L127.012 25.9168L123.189 36.9115H130.834Z" fill="#4ECDC4"/>
<path d="M158.279 46.4C156.437 46.4 154.772 46.0863 153.283 45.4587C151.82 44.8312 150.659 43.9275 149.801 42.7477C148.943 41.5679 148.501 40.1747 148.476 38.5682H154.154C154.229 39.6476 154.608 40.5011 155.289 41.1286C155.996 41.7562 156.955 42.0699 158.166 42.0699C159.402 42.0699 160.374 41.7813 161.08 41.2039C161.787 40.6015 162.14 39.8233 162.14 38.8694C162.14 38.0913 161.9 37.4512 161.421 36.9491C160.941 36.4471 160.336 36.058 159.604 35.7819C158.898 35.4807 157.913 35.1544 156.652 34.8029C154.936 34.3009 153.536 33.8114 152.45 33.3345C151.391 32.8324 150.47 32.0919 149.687 31.1129C148.93 30.1089 148.552 28.7785 148.552 27.1217C148.552 25.5654 148.943 24.2099 149.725 23.0552C150.508 21.9005 151.605 21.0219 153.018 20.4195C154.431 19.792 156.046 19.4782 157.863 19.4782C160.588 19.4782 162.796 20.1434 164.487 21.4738C166.203 22.7791 167.149 24.6115 167.325 26.9711H161.497C161.446 26.0674 161.055 25.3269 160.323 24.7496C159.617 24.1471 158.67 23.8459 157.485 23.8459C156.45 23.8459 155.617 24.1095 154.986 24.6366C154.381 25.1638 154.078 25.9294 154.078 26.9335C154.078 27.6363 154.305 28.2262 154.759 28.7031C155.239 29.155 155.819 29.5315 156.5 29.8327C157.207 30.1089 158.191 30.4352 159.453 30.8117C161.169 31.3138 162.569 31.8158 163.654 32.3178C164.739 32.8199 165.673 33.5729 166.455 34.577C167.237 35.5811 167.628 36.8989 167.628 38.5306C167.628 39.9363 167.262 41.2416 166.531 42.4465C165.799 43.6514 164.726 44.6178 163.313 45.3457C161.9 46.0486 160.222 46.4 158.279 46.4Z" fill="#4ECDC4"/>
<path d="M175.932 19.8547V36.1208C175.932 37.903 176.398 39.2711 177.332 40.2249C178.266 41.1537 179.578 41.6181 181.268 41.6181C182.984 41.6181 184.309 41.1537 185.243 40.2249C186.176 39.2711 186.643 37.903 186.643 36.1208V19.8547H191.98V36.0831C191.98 38.3172 191.488 40.2124 190.504 41.7687C189.545 43.2999 188.245 44.4546 186.605 45.2328C184.99 46.0109 183.186 46.4 181.193 46.4C179.225 46.4 177.433 46.0109 175.818 45.2328C174.228 44.4546 172.967 43.2999 172.033 41.7687C171.099 40.2124 170.633 38.3172 170.633 36.0831V19.8547H175.932Z" fill="#4ECDC4"/>
<path d="M204.708 46.4C202.866 46.4 201.2 46.0863 199.711 45.4587C198.248 44.8312 197.087 43.9275 196.229 42.7477C195.371 41.5679 194.93 40.1747 194.904 38.5682H200.582C200.658 39.6476 201.036 40.5011 201.717 41.1286C202.424 41.7562 203.383 42.0699 204.594 42.0699C205.83 42.0699 206.802 41.7813 207.508 41.2039C208.215 40.6015 208.568 39.8233 208.568 38.8694C208.568 38.0913 208.329 37.4512 207.849 36.9491C207.37 36.4471 206.764 36.058 206.032 35.7819C205.326 35.4807 204.342 35.1544 203.08 34.8029C201.364 34.3009 199.964 33.8114 198.879 33.3345C197.819 32.8324 196.898 32.0919 196.116 31.1129C195.359 30.1089 194.98 28.7785 194.98 27.1217C194.98 25.5654 195.371 24.2099 196.153 23.0552C196.936 21.9005 198.033 21.0219 199.446 20.4195C200.859 19.792 202.474 19.4782 204.291 19.4782C207.016 19.4782 209.224 20.1434 210.915 21.4738C212.631 22.7791 213.577 24.6115 213.754 26.9711H207.925C207.874 26.0674 207.483 25.3269 206.751 24.7496C206.045 24.1471 205.099 23.8459 203.913 23.8459C202.878 23.8459 202.045 24.1095 201.415 24.6366C200.809 25.1638 200.506 25.9294 200.506 26.9335C200.506 27.6363 200.733 28.2262 201.188 28.7031C201.667 29.155 202.247 29.5315 202.929 29.8327C203.635 30.1089 204.619 30.4352 205.881 30.8117C207.597 31.3138 208.997 31.8158 210.082 32.3178C211.167 32.8199 212.101 33.5729 212.883 34.577C213.665 35.5811 214.056 36.8989 214.056 38.5306C214.056 39.9363 213.691 41.2416 212.959 42.4465C212.227 43.6514 211.155 44.6178 209.742 45.3457C208.329 46.0486 206.651 46.4 204.708 46.4Z" fill="#4ECDC4"/>
<path d="M233.336 41.1286H222.814L221.073 46.1365H215.509L225.009 19.8171H231.179L240.679 46.1365H235.077L233.336 41.1286ZM231.898 36.9115L228.075 25.9168L224.252 36.9115H231.898Z" fill="#4ECDC4"/>
<path d="M265.313 46.1365H260.014L248.015 28.1007V46.1365H242.716V19.8171H248.015L260.014 37.8905V19.8171H265.313V46.1365ZM247.22 17.8214C247.447 16.1647 247.965 14.9347 248.772 14.1315C249.605 13.3031 250.652 12.8889 251.914 12.8889C252.444 12.8889 252.91 12.9768 253.314 13.1525C253.718 13.3031 254.172 13.529 254.677 13.8302C255.434 14.3072 256.065 14.5456 256.569 14.5456C257.503 14.5456 258.045 14.006 258.197 12.9266H261.036C260.808 14.5833 260.279 15.8258 259.446 16.6542C258.638 17.4575 257.604 17.8591 256.342 17.8591C255.812 17.8591 255.345 17.7838 254.942 17.6332C254.538 17.4575 254.084 17.219 253.579 16.9178C252.847 16.4157 252.217 16.1647 251.687 16.1647C250.753 16.1647 250.198 16.717 250.021 17.8214H247.22Z" fill="#4ECDC4"/>
<path d="M285.235 41.1286H274.713L272.972 46.1365H267.408L276.908 19.8171H283.077L292.578 46.1365H286.976L285.235 41.1286ZM283.797 36.9115L279.974 25.9168L276.151 36.9115H283.797Z" fill="#4ECDC4"/>
</svg>
