<svg width="358" height="131" viewBox="0 0 358 131" fill="none" xmlns="http://www.w3.org/2000/svg">
<path d="M76 67.3196V130.32L101.5 130.119V71.8999C102.5 65.3999 108.824 59.5033 115.5 57.8999C120.5 56.6991 128 57.3999 137 59.6192L137.5 36.6191C89.9 26.6191 76.8333 52.8196 76 67.3196Z" fill="#00D1C6"/>
<path d="M18 0V34H0C0 34 -0.00451827 43.14 2.5 48C5.7804 54.3655 18 56 18 56V97.5C18.4959 108.907 23.9082 115.056 26.4386 117.93L26.5 118C37.5 130.5 57.5 132.5 73 128.5V105.5C51 113 42.0889 100 41.7 93C41.3111 86 41.7 56 41.7 56H73V34H41.5V0H18Z" fill="#00D1C6"/>
<path d="M140.5 34.3999H167.5V130.4H140.5V34.3999Z" fill="#00D1C6"/>
<path d="M195.684 130.4H170.5V77.195C170.5 45.966 194.86 34.3999 214 34.3999C249.487 34.3999 257.5 60.3999 257.5 74.8818V130.4H233.14V80.6649C233.14 65.6288 226.592 56.8269 214 57.5324C197.974 58.4303 195.684 73.0763 195.684 80.6649V130.4Z" fill="#00D1C6"/>
<path d="M309 35.3999C335.786 35.3999 357.5 56.6664 357.5 82.8999C357.5 109.133 335.786 130.4 309 130.4C282.214 130.4 260.5 109.133 260.5 82.8999C260.5 56.6664 282.214 35.3999 309 35.3999Z" fill="#00D1C6"/>
<path d="M309 35.3999C335.786 35.3999 357.5 56.6664 357.5 82.8999C357.5 109.133 335.786 130.4 309 130.4C282.214 130.4 260.5 109.133 260.5 82.8999C260.5 56.6664 282.214 35.3999 309 35.3999Z" stroke="#00D1C6"/>
<circle cx="309" cy="82.8999" r="26.5" fill="#29454A"/>
<circle cx="309" cy="82.8999" r="26.5" stroke="#00D1C6"/>
<path d="M357.538 47.3325V130.4H334.21V106.4L339.5 82.8999L334.21 67.3999V34.3999L357.538 47.3325Z" fill="#00D1C6"/>
<path d="M357.538 47.3325V130.4H334.21V106.4L339.5 82.8999L334.21 67.3999V34.3999L357.538 47.3325Z" stroke="#00D1C6"/>
<rect x="140.5" y="0.899902" width="27" height="25" rx="12.5" fill="#00D1C6" stroke="#00D1C6"/>
</svg>
